{"title":"Sons of Ram (2012) 1CD DVDRip XviD E-Subs Hindi Movie","uid":8181461,"size":657040604,"categoryP":"video","categoryS":"movies","magnet":"?xt=urn:btih:dc466ae64893033981bdb6881fa9ca2c12fb64e7&amp;dn=Sons+of+Ram+%282012%29+1CD+DVDRip+XviD+E-Subs+Hindi+Movie&amp;tr=udp%3A%2F%2Ftracker.openbittorrent.com%3A80&amp;tr=udp%3A%2F%2Fopen.demonii.com%3A1337&amp;tr=udp%3A%2F%2Ftracker.coppersurfer.tk%3A6969&amp;tr=udp%3A%2F%2Fexodus.desync.com%3A6969","seeders":1,"leechers":0,"uploader":"shaan666","files":-1,"time":1361635254,"description":"Sons of Ram (2012)\n\n &lt;a href=&quot;\nhttp://www.shotpix.com/images/60875924038265986780.jpg&quot; rel=&quot;nofollow&quot; target=&quot;_NEW&quot;&gt;\nhttp://www.shotpix.com/images/60875924038265986780.jpg&lt;/a&gt;\n\n\n\n[B]INFO[/B]\n &lt;a href=&quot;\nhttp://www.imdb.com/title/tt2317103/&quot; rel=&quot;nofollow&quot; target=&quot;_NEW&quot;&gt;\nhttp://www.imdb.com/title/tt2317103/&lt;/a&gt;\n\n[CODE]Format : AVI\nFormat/Info : Audio Video Interleave\nFile size : 612 MiB\nDuration : 1h 25mn\nOverall bit rate : 999 Kbps\n\nCodec ID : XVID\nCodec ID/Hint : XviD\nDuration : 1h 25mn\nBit rate : 862 Kbps\nWidth : 688 pixels\nHeight : 352 pixels\nDisplay aspect ratio : 1.955\nFrame rate : 29.970 fps\nColor space : YUV\nChroma subsampling : 4:2:0\nBit depth : 8 bits\nScan type : Progressive\nCompression mode : Lossy\nBits/(Pixel*Frame) : 0.119\nStream size : 528 MiB (86%)\nWriting library : XviD 1.2.1 (UTC 2008-12-04)\n\nFormat : AC-3\nFormat/Info : Audio Coding 3\nMode extension : CM (complete main)\nFormat settings, Endianness : Big\nCodec ID : 2000\nDuration : 1h 25mn\nBit rate mode : Constant\nBit rate : 128 Kbps\nChannel(s) : 2 channels\nChannel positions : Front: L R\nSampling rate : 48.0 KHz\nBit depth : 16 bits\nCompression mode : Lossy\nStream size : 78.4 MiB (13%)\nAlignment : Aligned on interleaves\nInterleave, duration : 64 ms (1.92 video frames)\nInterleave, preload duration : 192 ms[/CODE]\n\n\n\n\n\n\n[B]SCREEN SHOTS[/B]\n &lt;a href=&quot;\nhttp://www.shotpix.com/images/21806359679247168453.png&quot; rel=&quot;nofollow&quot; target=&quot;_NEW&quot;&gt;\nhttp://www.shotpix.com/images/21806359679247168453.png&lt;/a&gt;\n &lt;a href=&quot;\nhttp://www.shotpix.com/images/79945242716176700842.png&quot; rel=&quot;nofollow&quot; target=&quot;_NEW&quot;&gt;\nhttp://www.shotpix.com/images/79945242716176700842.png&lt;/a&gt;\n &lt;a href=&quot;\nhttp://www.shotpix.com/images/86882434257806318397.png&quot; rel=&quot;nofollow&quot; target=&quot;_NEW&quot;&gt;\nhttp://www.shotpix.com/images/86882434257806318397.png&lt;/a&gt;\n &lt;a href=&quot;\nhttp://www.shotpix.com/images/46735441496694426445.png&quot; rel=&quot;nofollow&quot; target=&quot;_NEW&quot;&gt;\nhttp://www.shotpix.com/images/46735441496694426445.png&lt;/a&gt;\n &lt;a href=&quot;\nhttp://www.shotpix.com/images/83660861235012844553.png&quot; rel=&quot;nofollow&quot; target=&quot;_NEW&quot;&gt;\nhttp://www.shotpix.com/images/83660861235012844553.png&lt;/a&gt;\n &lt;a href=&quot;\nhttp://www.shotpix.com/images/14844983293080530749.png&quot; rel=&quot;nofollow&quot; target=&quot;_NEW&quot;&gt;\nhttp://www.shotpix.com/images/14844983293080530749.png&lt;/a&gt;","torrent":{"xt":"urn:btih:dc466ae64893033981bdb6881fa9ca2c12fb64e7","amp;dn":"Sons+of+Ram+%282012%29+1CD+DVDRip+XviD+E-Subs+Hindi+Movie","amp;tr":["udp%3A%2F%2Ftracker.openbittorrent.com%3A80","udp%3A%2F%2Fopen.demonii.com%3A1337","udp%3A%2F%2Ftracker.coppersurfer.tk%3A6969","udp%3A%2F%2Fexodus.desync.com%3A6969"],"infoHash":"dc466ae64893033981bdb6881fa9ca2c12fb64e7","infoHashBuffer":{"type":"Buffer","data":[220,70,106,230,72,147,3,57,129,189,182,136,31,169,202,44,18,251,100,231]},"announce":[],"urlList":[]}}